<svg xmlns="http://www.w3.org/2000/svg" viewBox="0 0 152.02 215.53"><defs><style>.cls-1{fill:#f9f9f9;fill-rule:evenodd;}.cls-2{fill:#212328;}</style></defs><title>card-spade-3</title><g id="Layer_2" data-name="Layer 2"><g id="Layer_1-2" data-name="Layer 1"><path class="cls-1" d="M6.48,0h139a6,6,0,0,1,1.4.17H147a5.87,5.87,0,0,1,2.61,1.45h0a5.86,5.86,0,0,1,1.16,1.59l.42.83a6.23,6.23,0,0,1,.56,1.84l.26,2a4.69,4.69,0,0,1,0,.75V207a5.11,5.11,0,0,1,0,.78l-.25,1.86a6.22,6.22,0,0,1-.53,1.75l-.42.85a5.73,5.73,0,0,1-1.28,1.73h0a5.81,5.81,0,0,1-2.36,1.32h-.2a5.56,5.56,0,0,1-1.57.22H6.57A5.83,5.83,0,0,1,5,215.42H4.87A5.88,5.88,0,0,1,2.42,214h0a5.88,5.88,0,0,1-1.2-1.64l-.41-.84a5.94,5.94,0,0,1-.54-1.89L0,207.76q0-.33,0-.66V8L.26,6A5.56,5.56,0,0,1,.84,4l.41-.82A5.58,5.58,0,0,1,2.33,1.71h0A5.76,5.76,0,0,1,5,.19h.06A6.14,6.14,0,0,1,6.48,0Z"/><path class="cls-2" d="M73.79,128.2a2.23,2.23,0,0,1,0-.59q.45-12.73,6.19-20.35t19.2-7.61a26.51,26.51,0,0,1,22.67,11.85,28.69,28.69,0,0,1,4.35,10.73c.1.57.19,1.33.27,2.29a19.56,19.56,0,0,1-.59,7.06,17.47,17.47,0,0,1-2.52,5.28,38.87,38.87,0,0,1-4.17,4.79,23.34,23.34,0,0,1,8.31,7.15,24.72,24.72,0,0,1,4.11,10,36.1,36.1,0,0,1,.43,7.29,32.66,32.66,0,0,1-4.15,14.8,28.06,28.06,0,0,1-10.66,10.66,31.06,31.06,0,0,1-15.78,3.94q-13.05,0-22-6T68.21,170.59a43.42,43.42,0,0,1-.65-6.3,5.73,5.73,0,0,1,.46-3.12c.42-.76,1.32-1.14,2.72-1.14H84.59c1.54,0,2.4.61,2.6,1.7a4.64,4.64,0,0,1,0,1.25,21.84,21.84,0,0,0,.2,3.74q.84,4.72,4,6.69a13.08,13.08,0,0,0,7.14,2,11,11,0,0,0,7.9-2.82q3-2.82,3.13-8.33a17.47,17.47,0,0,0-.2-3,8,8,0,0,0-3.62-5.64,14.79,14.79,0,0,0-8.08-1.9c-1.53,0-2.39-.57-2.59-1.71a3.94,3.94,0,0,1,0-.85l.45-13.78a4.18,4.18,0,0,1,.68-2.14,2.18,2.18,0,0,1,1.84-.69q3.75,0,5.47-1.77c1.14-1.18,1.76-3.15,1.84-5.9a11.44,11.44,0,0,0-.1-2.1,7.66,7.66,0,0,0-1.87-3.91,5.36,5.36,0,0,0-4.16-1.61,5.87,5.87,0,0,0-4.53,2,9.48,9.48,0,0,0-2,6c0,1.58-.77,2.37-2.21,2.37l-14.66-.13Q74,129.58,73.79,128.2Z"/><path class="cls-2" d="M57.06,57.83H22.49a2.49,2.49,0,0,1-2.2-3.65L37.56,21.33A2.49,2.49,0,0,1,39.76,20h0A2.49,2.49,0,0,1,42,21.33L59.26,54.18a2.49,2.49,0,0,1-2.2,3.65Z"/></g></g></svg>