<svg xmlns="http://www.w3.org/2000/svg" viewBox="0 0 152.02 215.53"><defs><style>.cls-1{fill:#f9f9f9;fill-rule:evenodd;}.cls-2{fill:#212328;}</style></defs><title>card-club-8</title><g id="Layer_2" data-name="Layer 2"><g id="Layer_1-2" data-name="Layer 1"><path class="cls-1" d="M6.48,0h139a6,6,0,0,1,1.4.17H147a5.87,5.87,0,0,1,2.61,1.45h0a5.86,5.86,0,0,1,1.16,1.59l.42.83a6.23,6.23,0,0,1,.56,1.84l.26,2a4.69,4.69,0,0,1,0,.75V207a5.11,5.11,0,0,1,0,.78l-.25,1.86a6.22,6.22,0,0,1-.53,1.75l-.42.85a5.73,5.73,0,0,1-1.28,1.73h0a5.81,5.81,0,0,1-2.36,1.32h-.2a5.56,5.56,0,0,1-1.57.22H6.57A5.83,5.83,0,0,1,5,215.42H4.87A5.88,5.88,0,0,1,2.42,214h0a5.88,5.88,0,0,1-1.2-1.64l-.41-.84a5.94,5.94,0,0,1-.54-1.89L0,207.76q0-.33,0-.66V8L.26,6A5.56,5.56,0,0,1,.84,4l.41-.82A5.58,5.58,0,0,1,2.33,1.71h0A5.76,5.76,0,0,1,5,.19h.06A6.14,6.14,0,0,1,6.48,0Z"/><path class="cls-2" d="M80.65,112.78a28.73,28.73,0,0,1,10.1-9.55,26.41,26.41,0,0,1,13.34-3.58,25.16,25.16,0,0,1,11.58,2.79,26.72,26.72,0,0,1,9.19,7.61,24.44,24.44,0,0,1,4.75,10.73,25,25,0,0,1,.33,4.86,27,27,0,0,1-5.62,15q8.67,7.08,10.43,17.12a28.39,28.39,0,0,1,.42,6.11,31.67,31.67,0,0,1-17,27.46,38.37,38.37,0,0,1-32.32,1.15,30.25,30.25,0,0,1-11.4-8.63,28.11,28.11,0,0,1-5.88-13.09,34.8,34.8,0,0,1-.48-7.15,27.42,27.42,0,0,1,3.62-12.83,33.52,33.52,0,0,1,9.07-10.14A25.77,25.77,0,0,1,77,130.82a28.46,28.46,0,0,1-.39-5.18A25,25,0,0,1,80.65,112.78ZM91.18,166a9.92,9.92,0,0,0,3.46,6,10.29,10.29,0,0,0,6.82,2.36,10,10,0,0,0,7.51-3.18,11.82,11.82,0,0,0,3.26-7.91,13.1,13.1,0,0,0-.22-2.76,10.54,10.54,0,0,0-3.21-6.1,9.15,9.15,0,0,0-6.49-2.36,10.78,10.78,0,0,0-5.7,1.54,11.06,11.06,0,0,0-4,4.13,12.31,12.31,0,0,0-1.57,5.61A12.63,12.63,0,0,0,91.18,166Zm7.68-34.22a6.37,6.37,0,0,0,4.2,1.47,6.58,6.58,0,0,0,4.75-1.93,7,7,0,0,0,2.13-4.83,9.79,9.79,0,0,0-.1-1.31,6.37,6.37,0,0,0-2.19-3.87,6.18,6.18,0,0,0-4.14-1.51A6.66,6.66,0,0,0,99.74,121a7.07,7.07,0,0,0-2.58,3,6.55,6.55,0,0,0-.48,4A6.23,6.23,0,0,0,98.86,131.78Z"/><path class="cls-2" d="M42,40A10,10,0,1,1,52.24,30,10.12,10.12,0,0,1,42,40Z"/><path class="cls-2" d="M53.84,57.46a10,10,0,1,1,10.21-10A10.12,10.12,0,0,1,53.84,57.46Z"/><path class="cls-2" d="M30.21,57.46a10,10,0,1,1,10.22-10A10.12,10.12,0,0,1,30.21,57.46Z"/></g></g></svg>