<svg xmlns="http://www.w3.org/2000/svg" viewBox="0 0 152.02 215.53"><defs><style>.cls-1{fill:#f9f9f9;fill-rule:evenodd;}.cls-2{fill:#212328;}</style></defs><title>card-spade-q</title><g id="Layer_2" data-name="Layer 2"><g id="Layer_1-2" data-name="Layer 1"><path class="cls-1" d="M6.48,0h139a6,6,0,0,1,1.4.17H147a5.87,5.87,0,0,1,2.61,1.45h0a5.86,5.86,0,0,1,1.16,1.59l.42.83a6.23,6.23,0,0,1,.56,1.84l.26,2a4.69,4.69,0,0,1,0,.75V207a5.11,5.11,0,0,1,0,.78l-.25,1.86a6.22,6.22,0,0,1-.53,1.75l-.42.85a5.73,5.73,0,0,1-1.28,1.73h0a5.81,5.81,0,0,1-2.36,1.32h-.2a5.56,5.56,0,0,1-1.57.22H6.57A5.83,5.83,0,0,1,5,215.42H4.87A5.88,5.88,0,0,1,2.42,214h0a5.88,5.88,0,0,1-1.2-1.64l-.41-.84a5.94,5.94,0,0,1-.54-1.89L0,207.76q0-.33,0-.66V8L.26,6A5.56,5.56,0,0,1,.84,4l.41-.82A5.58,5.58,0,0,1,2.33,1.71h0A5.76,5.76,0,0,1,5,.19h.06A6.14,6.14,0,0,1,6.48,0Z"/><path class="cls-2" d="M49.3,153.12a37.33,37.33,0,0,1,.31-20,41.33,41.33,0,0,1,10.78-17.9,38,38,0,0,1,32.72-10.83A38.25,38.25,0,0,1,109.52,111a39.24,39.24,0,0,1,5.73,4.85,40.82,40.82,0,0,1,9.6,15.43,37.56,37.56,0,0,1,1.76,17.29,35.44,35.44,0,0,1-6.35,16l9.48,10.18a2.06,2.06,0,0,1-.06,3.23l-10.85,10.85a1.85,1.85,0,0,1-2.57.45,3.63,3.63,0,0,1-.54-.51l-9.58-10.3A30.76,30.76,0,0,1,93.46,183a39.39,39.39,0,0,1-33.69-11.7A40.63,40.63,0,0,1,49.3,153.12Zm27.91,7.33a19.68,19.68,0,0,0,8.07,3.34,18.05,18.05,0,0,0,8.54-.61,18.52,18.52,0,0,0,7.57-4.69,19.31,19.31,0,0,0,5.22-9.08,20.59,20.59,0,0,0-.09-10.34,21.47,21.47,0,0,0-5.21-9.3,24,24,0,0,0-3.54-3.12,19.51,19.51,0,0,0-8-3.33,18.12,18.12,0,0,0-8.52.63,18.55,18.55,0,0,0-7.57,4.69,19.18,19.18,0,0,0-5.21,9.07,20.51,20.51,0,0,0,.08,10.35,21.62,21.62,0,0,0,5.21,9.3A24.38,24.38,0,0,0,77.21,160.45Z"/><path class="cls-2" d="M58.75,57.83H24.18A2.49,2.49,0,0,1,22,54.18L39.25,21.33A2.49,2.49,0,0,1,41.45,20h0a2.49,2.49,0,0,1,2.2,1.33L61,54.18a2.49,2.49,0,0,1-2.2,3.65Z"/></g></g></svg>