<svg xmlns="http://www.w3.org/2000/svg" viewBox="0 0 152.02 215.53"><defs><style>.cls-1{fill:#f9f9f9;fill-rule:evenodd;}.cls-2{fill:#212328;}</style></defs><title>card-club-0</title><g id="Layer_2" data-name="Layer 2"><g id="Layer_1-2" data-name="Layer 1"><path class="cls-1" d="M6.48,0h139a6,6,0,0,1,1.4.17H147a5.87,5.87,0,0,1,2.61,1.45h0a5.86,5.86,0,0,1,1.16,1.59l.42.83a6.23,6.23,0,0,1,.56,1.84l.26,2a4.69,4.69,0,0,1,0,.75V207a5.11,5.11,0,0,1,0,.78l-.25,1.86a6.22,6.22,0,0,1-.53,1.75l-.42.85a5.73,5.73,0,0,1-1.28,1.73h0a5.81,5.81,0,0,1-2.36,1.32h-.2a5.56,5.56,0,0,1-1.57.22H6.57A5.83,5.83,0,0,1,5,215.42H4.87A5.88,5.88,0,0,1,2.42,214h0a5.88,5.88,0,0,1-1.2-1.64l-.41-.84a5.94,5.94,0,0,1-.54-1.89L0,207.76q0-.33,0-.66V8L.26,6A5.56,5.56,0,0,1,.84,4l.41-.82A5.58,5.58,0,0,1,2.33,1.71h0A5.76,5.76,0,0,1,5,.19h.06A6.14,6.14,0,0,1,6.48,0Z"/><path class="cls-2" d="M56.42,122.13A46.27,46.27,0,0,1,74,105.36a51,51,0,0,1,25-6.1,43.14,43.14,0,0,1,21,5.28,46.89,46.89,0,0,1,16.08,14.34A49.15,49.15,0,0,1,144.4,139a49.68,49.68,0,0,1,.77,10.3A47.43,47.43,0,0,1,138.26,173a45.67,45.67,0,0,1-17.62,16.53,52.06,52.06,0,0,1-25.13,6,43.9,43.9,0,0,1-21-5.15,46.58,46.58,0,0,1-16.1-14.08,48.11,48.11,0,0,1-9-30.32A48.55,48.55,0,0,1,56.42,122.13Zm16.91,30.94a24,24,0,0,0,4.2,10.07,22.35,22.35,0,0,0,8.11,6.93,23.39,23.39,0,0,0,10.75,2.49,24.28,24.28,0,0,0,12.53-3.35,25.7,25.7,0,0,0,9.16-9.08,26.38,26.38,0,0,0,3.73-12.7,26.89,26.89,0,0,0-.39-5.58,24.21,24.21,0,0,0-4.25-10.14,23,23,0,0,0-18.92-9.62,23.92,23.92,0,0,0-12.49,3.42,25.64,25.64,0,0,0-9.14,9.22,27,27,0,0,0-3.7,12.7A28.7,28.7,0,0,0,73.33,153.07Z"/><path class="cls-2" d="M42,40A10,10,0,1,1,52.24,30,10.12,10.12,0,0,1,42,40Z"/><path class="cls-2" d="M53.84,57.46a10,10,0,1,1,10.21-10A10.12,10.12,0,0,1,53.84,57.46Z"/><path class="cls-2" d="M30.21,57.46a10,10,0,1,1,10.22-10A10.12,10.12,0,0,1,30.21,57.46Z"/></g></g></svg>