<svg xmlns="http://www.w3.org/2000/svg" viewBox="0 0 152.02 215.53"><defs><style>.cls-1{fill:#f9f9f9;fill-rule:evenodd;}.cls-2{fill:#d93025;}</style></defs><title>card-diamond-a</title><g id="Layer_2" data-name="Layer 2"><g id="Layer_1-2" data-name="Layer 1"><path class="cls-1" d="M6.48,0h139a6,6,0,0,1,1.4.17H147a5.87,5.87,0,0,1,2.61,1.45h0a5.86,5.86,0,0,1,1.16,1.59l.42.83a6.23,6.23,0,0,1,.56,1.84l.26,2a4.69,4.69,0,0,1,0,.75V207a5.11,5.11,0,0,1,0,.78l-.25,1.86a6.22,6.22,0,0,1-.53,1.75l-.42.85a5.73,5.73,0,0,1-1.28,1.73h0a5.81,5.81,0,0,1-2.36,1.32h-.2a5.56,5.56,0,0,1-1.57.22H6.57A5.83,5.83,0,0,1,5,215.42H4.87A5.88,5.88,0,0,1,2.42,214h0a5.88,5.88,0,0,1-1.2-1.64l-.41-.84a5.94,5.94,0,0,1-.54-1.89L0,207.76q0-.33,0-.66V8L.26,6A5.56,5.56,0,0,1,.84,4l.41-.82A5.58,5.58,0,0,1,2.33,1.71h0A5.76,5.76,0,0,1,5,.19h.06A6.14,6.14,0,0,1,6.48,0Z"/><path class="cls-2" d="M38.79,61.34a2.48,2.48,0,0,1-1.88-.87L21.3,42.29a2.46,2.46,0,0,1,0-3.24L36.91,20.87a2.48,2.48,0,0,1,3.77,0L56.29,39.05h0a2.46,2.46,0,0,1,0,3.24L40.68,60.47A2.49,2.49,0,0,1,38.79,61.34Z"/><path class="cls-2" d="M81.51,102H96.93a3.64,3.64,0,0,1,3.65,2.82l31.2,88a3.52,3.52,0,0,1,.2.73c.23,1.35-.43,2-2,2H111.86a3.58,3.58,0,0,1-3.7-2.76l-4-12.33H69.82l-4.71,12.33a3.75,3.75,0,0,1-3.85,2.76H41.84c-1.23,0-1.91-.39-2.05-1.18a3,3,0,0,1,.31-1.58l37.38-88A4.06,4.06,0,0,1,81.51,102Zm16.24,58.21-9.12-28.62-11,28.62Z"/></g></g></svg>