<svg xmlns="http://www.w3.org/2000/svg" viewBox="0 0 152.02 215.53"><defs><style>.cls-1{fill:#f9f9f9;fill-rule:evenodd;}.cls-2{fill:#212328;}</style></defs><title>card-club-j</title><g id="Layer_2" data-name="Layer 2"><g id="Layer_1-2" data-name="Layer 1"><path class="cls-1" d="M6.48,0h139a6,6,0,0,1,1.4.17H147a5.87,5.87,0,0,1,2.61,1.45h0a5.86,5.86,0,0,1,1.16,1.59l.42.83a6.23,6.23,0,0,1,.56,1.84l.26,2a4.69,4.69,0,0,1,0,.75V207a5.11,5.11,0,0,1,0,.78l-.25,1.86a6.22,6.22,0,0,1-.53,1.75l-.42.85a5.73,5.73,0,0,1-1.28,1.73h0a5.81,5.81,0,0,1-2.36,1.32h-.2a5.56,5.56,0,0,1-1.57.22H6.57A5.83,5.83,0,0,1,5,215.42H4.87A5.88,5.88,0,0,1,2.42,214h0a5.88,5.88,0,0,1-1.2-1.64l-.41-.84a5.94,5.94,0,0,1-.54-1.89L0,207.76q0-.33,0-.66V8L.26,6A5.56,5.56,0,0,1,.84,4l.41-.82A5.58,5.58,0,0,1,2.33,1.71h0A5.76,5.76,0,0,1,5,.19h.06A6.14,6.14,0,0,1,6.48,0Z"/><path class="cls-2" d="M116.91,102.36a2.82,2.82,0,0,1,1.44-.41h14.27a3.74,3.74,0,0,1,1.8.33,1.54,1.54,0,0,1,.72,1.16,4.06,4.06,0,0,1,0,1.07l-2.45,67.61a20,20,0,0,1-.34,2.93c-.18,1-.29,1.59-.32,1.79a23.18,23.18,0,0,1-12.66,16.3,23.7,23.7,0,0,1-10.53,2.39,24.15,24.15,0,0,1-6.63-1.05,29.72,29.72,0,0,1-7-3A19,19,0,0,1,90,186.91a10.61,10.61,0,0,1-.58-1,3.7,3.7,0,0,1-.4-1.1,1.88,1.88,0,0,1,.59-1.85l8.77-7.9a2.91,2.91,0,0,1,1.94-1,1.88,1.88,0,0,1,1,.28,6.41,6.41,0,0,1,.83.67c.27.26.48.45.65.59a19.17,19.17,0,0,0,2.44,1.77,4.62,4.62,0,0,0,2.33.54,5.58,5.58,0,0,0,2.88-.82,7.37,7.37,0,0,0,2.32-2.16,5.17,5.17,0,0,0,1-2.82l2.47-68.07A1.84,1.84,0,0,1,116.91,102.36Z"/><path class="cls-2" d="M42,40A10,10,0,1,1,52.24,30,10.12,10.12,0,0,1,42,40Z"/><path class="cls-2" d="M53.84,57.46a10,10,0,1,1,10.21-10A10.12,10.12,0,0,1,53.84,57.46Z"/><path class="cls-2" d="M30.21,57.46a10,10,0,1,1,10.22-10A10.12,10.12,0,0,1,30.21,57.46Z"/></g></g></svg>