<svg xmlns="http://www.w3.org/2000/svg" viewBox="0 0 152.02 215.53"><defs><style>.cls-1{fill:#f9f9f9;fill-rule:evenodd;}.cls-2{fill:#d93025;}</style></defs><title>card-diamond-2</title><g id="Layer_2" data-name="Layer 2"><g id="Layer_1-2" data-name="Layer 1"><path class="cls-1" d="M6.48,0h139a6,6,0,0,1,1.4.17H147a5.87,5.87,0,0,1,2.61,1.45h0a5.86,5.86,0,0,1,1.16,1.59l.42.83a6.23,6.23,0,0,1,.56,1.84l.26,2a4.69,4.69,0,0,1,0,.75V207a5.11,5.11,0,0,1,0,.78l-.25,1.86a6.22,6.22,0,0,1-.53,1.75l-.42.85a5.73,5.73,0,0,1-1.28,1.73h0a5.81,5.81,0,0,1-2.36,1.32h-.2a5.56,5.56,0,0,1-1.57.22H6.57A5.83,5.83,0,0,1,5,215.42H4.87A5.88,5.88,0,0,1,2.42,214h0a5.88,5.88,0,0,1-1.2-1.64l-.41-.84a5.94,5.94,0,0,1-.54-1.89L0,207.76q0-.33,0-.66V8L.26,6A5.56,5.56,0,0,1,.84,4l.41-.82A5.58,5.58,0,0,1,2.33,1.71h0A5.76,5.76,0,0,1,5,.19h.06A6.14,6.14,0,0,1,6.48,0Z"/><path class="cls-2" d="M38.79,61.34a2.48,2.48,0,0,1-1.88-.87L21.3,42.29a2.46,2.46,0,0,1,0-3.24L36.91,20.87a2.48,2.48,0,0,1,3.77,0L56.29,39.05h0a2.46,2.46,0,0,1,0,3.24L40.68,60.47A2.49,2.49,0,0,1,38.79,61.34Z"/><path class="cls-2" d="M70.48,135.52a3,3,0,0,1-.4-1.12q-.06-.56-.09-.69a37,37,0,0,1,2.36-16.6,27.13,27.13,0,0,1,10.13-12.7q7.08-4.89,17.84-4.89a36.67,36.67,0,0,1,14,2.72,29.43,29.43,0,0,1,11.27,8.08,26.27,26.27,0,0,1,5.95,12.89,34.46,34.46,0,0,1,.48,6.1A26,26,0,0,1,129,142a42.27,42.27,0,0,1-6.78,9.38l-22.18,23.43h28a4.16,4.16,0,0,1,2.14.43,2.09,2.09,0,0,1,.89,1.54,5.47,5.47,0,0,1,.11,1.31l-.52,14.57a2.59,2.59,0,0,1-3,2.89H70.07a6.23,6.23,0,0,1-2.38-.43,1.93,1.93,0,0,1-1.25-1.54,2.7,2.7,0,0,1,0-.66l.31-8.66a8.32,8.32,0,0,1,.41-2.49,9.79,9.79,0,0,1,1.51-2.23L106,137.12a26.27,26.27,0,0,0,3-3.87,9.76,9.76,0,0,0,1.23-4.72,6.59,6.59,0,0,0-.13-1.51,7.17,7.17,0,0,0-3.21-4.79,10.11,10.11,0,0,0-5.84-1.84q-5.58,0-7.92,3.81a20.71,20.71,0,0,0-2.63,10c-.06.87-.33,1.42-.79,1.64a4.43,4.43,0,0,1-2,.26l-15.9-.07A1.46,1.46,0,0,1,70.48,135.52Z"/></g></g></svg>