<svg xmlns="http://www.w3.org/2000/svg" viewBox="0 0 152.02 215.53"><defs><style>.cls-1{fill:#f9f9f9;fill-rule:evenodd;}.cls-2{fill:#d93025;}</style></defs><title>card-diamond-6</title><g id="Layer_2" data-name="Layer 2"><g id="Layer_1-2" data-name="Layer 1"><path class="cls-1" d="M6.48,0h139a6,6,0,0,1,1.4.17H147a5.87,5.87,0,0,1,2.61,1.45h0a5.86,5.86,0,0,1,1.16,1.59l.42.83a6.23,6.23,0,0,1,.56,1.84l.26,2a4.69,4.69,0,0,1,0,.75V207a5.11,5.11,0,0,1,0,.78l-.25,1.86a6.22,6.22,0,0,1-.53,1.75l-.42.85a5.73,5.73,0,0,1-1.28,1.73h0a5.81,5.81,0,0,1-2.36,1.32h-.2a5.56,5.56,0,0,1-1.57.22H6.57A5.83,5.83,0,0,1,5,215.42H4.87A5.88,5.88,0,0,1,2.42,214h0a5.88,5.88,0,0,1-1.2-1.64l-.41-.84a5.94,5.94,0,0,1-.54-1.89L0,207.76q0-.33,0-.66V8L.26,6A5.56,5.56,0,0,1,.84,4l.41-.82A5.58,5.58,0,0,1,2.33,1.71h0A5.76,5.76,0,0,1,5,.19h.06A6.14,6.14,0,0,1,6.48,0Z"/><path class="cls-2" d="M38.79,61.34a2.48,2.48,0,0,1-1.88-.87L21.3,42.29a2.46,2.46,0,0,1,0-3.24L36.91,20.87a2.48,2.48,0,0,1,3.77,0L56.29,39.05h0a2.46,2.46,0,0,1,0,3.24L40.68,60.47A2.49,2.49,0,0,1,38.79,61.34Z"/><path class="cls-2" d="M95.39,101.46a4,4,0,0,1,2.52-.76h18.7a3.29,3.29,0,0,1,1.78.39,1.51,1.51,0,0,1,.7,1,2.87,2.87,0,0,1-.6,2.16l-15.82,24.94a31.83,31.83,0,0,1,9.43,2.5,31.43,31.43,0,0,1,12.71,9.94,33.87,33.87,0,0,1,6.73,15.06,31.73,31.73,0,0,1,.45,7,32.48,32.48,0,0,1-5,16.41,31.9,31.9,0,0,1-12.44,11.35,37,37,0,0,1-17.33,4.07,34.73,34.73,0,0,1-15-3.48,35.89,35.89,0,0,1-12.48-9.74A30.33,30.33,0,0,1,63.2,168.1a31.54,31.54,0,0,1-.42-6.5,32.46,32.46,0,0,1,4.79-16l25.94-41.94A7.28,7.28,0,0,1,95.39,101.46Zm-9,64a10.57,10.57,0,0,0,3.42,6.33,9.77,9.77,0,0,0,6.72,2.39,10.21,10.21,0,0,0,7.85-3.31,12.86,12.86,0,0,0,3.27-8.43,16.53,16.53,0,0,0-.21-3A10.91,10.91,0,0,0,104,153a9.57,9.57,0,0,0-6.7-2.46,10.21,10.21,0,0,0-5.69,1.61,11.32,11.32,0,0,0-3.9,4.3,13.78,13.78,0,0,0-1.57,6A17.58,17.58,0,0,0,86.35,165.41Z"/></g></g></svg>