<svg xmlns="http://www.w3.org/2000/svg" viewBox="0 0 152.02 215.53"><defs><style>.cls-1{fill:#f9f9f9;fill-rule:evenodd;}.cls-2{fill:#d93025;}</style></defs><title>card-diamond-k</title><g id="Layer_2" data-name="Layer 2"><g id="Layer_1-2" data-name="Layer 1"><path class="cls-1" d="M6.48,0h139a6,6,0,0,1,1.4.17H147a5.87,5.87,0,0,1,2.61,1.45h0a5.86,5.86,0,0,1,1.16,1.59l.42.83a6.23,6.23,0,0,1,.56,1.84l.26,2a4.69,4.69,0,0,1,0,.75V207a5.11,5.11,0,0,1,0,.78l-.25,1.86a6.22,6.22,0,0,1-.53,1.75l-.42.85a5.73,5.73,0,0,1-1.28,1.73h0a5.81,5.81,0,0,1-2.36,1.32h-.2a5.56,5.56,0,0,1-1.57.22H6.57A5.83,5.83,0,0,1,5,215.42H4.87A5.88,5.88,0,0,1,2.42,214h0a5.88,5.88,0,0,1-1.2-1.64l-.41-.84a5.94,5.94,0,0,1-.54-1.89L0,207.76q0-.33,0-.66V8L.26,6A5.56,5.56,0,0,1,.84,4l.41-.82A5.58,5.58,0,0,1,2.33,1.71h0A5.76,5.76,0,0,1,5,.19h.06A6.14,6.14,0,0,1,6.48,0Z"/><path class="cls-2" d="M38.79,61.34a2.48,2.48,0,0,1-1.88-.87L21.3,42.29a2.46,2.46,0,0,1,0-3.24L36.91,20.87a2.48,2.48,0,0,1,3.77,0L56.29,39.05h0a2.46,2.46,0,0,1,0,3.24L40.68,60.47A2.49,2.49,0,0,1,38.79,61.34Z"/><path class="cls-2" d="M129.78,192.58a3.76,3.76,0,0,1,.65,1.44c.18,1-.35,1.51-1.57,1.51H106.94a3.36,3.36,0,0,1-2.15-.66,7.11,7.11,0,0,1-1.68-2.1L83.56,160.42l-10,11.48-.78,20.87a2.51,2.51,0,0,1-2.8,2.76H51.16c-1.53,0-2.41-.61-2.62-1.84a5.52,5.52,0,0,1,0-.92l3.18-88q.16-2.82,2.85-2.82H73.11a3.15,3.15,0,0,1,1.88.79,2.31,2.31,0,0,1,1,2l-1.1,32.42,27.49-33.14a6.11,6.11,0,0,1,2.12-1.74,7.5,7.5,0,0,1,2.63-.36H130.6c.83,0,1.3.28,1.4.85a2.69,2.69,0,0,1-.81,2.1L98.39,143Z"/></g></g></svg>