<svg xmlns="http://www.w3.org/2000/svg" viewBox="0 0 152.02 215.53"><defs><style>.cls-1{fill:#f9f9f9;fill-rule:evenodd;}.cls-2{fill:#212328;}</style></defs><title>card-spade-2</title><g id="Layer_2" data-name="Layer 2"><g id="Layer_1-2" data-name="Layer 1"><path class="cls-1" d="M6.48,0h139a6,6,0,0,1,1.4.17H147a5.87,5.87,0,0,1,2.61,1.45h0a5.86,5.86,0,0,1,1.16,1.59l.42.83a6.23,6.23,0,0,1,.56,1.84l.26,2a4.69,4.69,0,0,1,0,.75V207a5.11,5.11,0,0,1,0,.78l-.25,1.86a6.22,6.22,0,0,1-.53,1.75l-.42.85a5.73,5.73,0,0,1-1.28,1.73h0a5.81,5.81,0,0,1-2.36,1.32h-.2a5.56,5.56,0,0,1-1.57.22H6.57A5.83,5.83,0,0,1,5,215.42H4.87A5.88,5.88,0,0,1,2.42,214h0a5.88,5.88,0,0,1-1.2-1.64l-.41-.84a5.94,5.94,0,0,1-.54-1.89L0,207.76q0-.33,0-.66V8L.26,6A5.56,5.56,0,0,1,.84,4l.41-.82A5.58,5.58,0,0,1,2.33,1.71h0A5.76,5.76,0,0,1,5,.19h.06A6.14,6.14,0,0,1,6.48,0Z"/><path class="cls-2" d="M72.73,135.52a2.84,2.84,0,0,1-.39-1.12q-.07-.56-.09-.69a37,37,0,0,1,2.35-16.6,27.21,27.21,0,0,1,10.14-12.7q7.07-4.89,17.84-4.89a36.75,36.75,0,0,1,14,2.72,29.4,29.4,0,0,1,11.26,8.08,26.27,26.27,0,0,1,5.95,12.89,35.39,35.39,0,0,1,.49,6.1,26,26,0,0,1-3,12.67,42.27,42.27,0,0,1-6.78,9.38l-22.18,23.43h28a4.13,4.13,0,0,1,2.14.43,2.1,2.1,0,0,1,.9,1.54,5.39,5.39,0,0,1,.1,1.31L133,192.64a2.59,2.59,0,0,1-3,2.89H72.32A6.21,6.21,0,0,1,70,195.1a1.92,1.92,0,0,1-1.26-1.54,3.31,3.31,0,0,1,0-.66l.31-8.66a8,8,0,0,1,.42-2.49,9.46,9.46,0,0,1,1.51-2.23l37.41-42.4a26.82,26.82,0,0,0,3-3.87,9.76,9.76,0,0,0,1.24-4.72,6.72,6.72,0,0,0-.14-1.51,7.1,7.1,0,0,0-3.21-4.79,10.08,10.08,0,0,0-5.83-1.84q-5.58,0-7.93,3.81a20.72,20.72,0,0,0-2.62,10c-.07.87-.33,1.42-.8,1.64a4.41,4.41,0,0,1-2,.26l-15.89-.07A1.48,1.48,0,0,1,72.73,135.52Z"/><path class="cls-2" d="M57.06,57.83H22.49a2.49,2.49,0,0,1-2.2-3.65L37.56,21.33A2.49,2.49,0,0,1,39.76,20h0A2.49,2.49,0,0,1,42,21.33L59.26,54.18a2.49,2.49,0,0,1-2.2,3.65Z"/></g></g></svg>