<svg xmlns="http://www.w3.org/2000/svg" viewBox="0 0 152.02 215.53"><defs><style>.cls-1{fill:#f9f9f9;fill-rule:evenodd;}.cls-2{fill:#d93025;}</style></defs><title>card-heart-5</title><g id="Layer_2" data-name="Layer 2"><g id="Layer_1-2" data-name="Layer 1"><path class="cls-1" d="M6.48,0h139a6,6,0,0,1,1.4.17H147a5.87,5.87,0,0,1,2.61,1.45h0a5.86,5.86,0,0,1,1.16,1.59l.42.83a6.23,6.23,0,0,1,.56,1.84l.26,2a4.69,4.69,0,0,1,0,.75V207a5.11,5.11,0,0,1,0,.78l-.25,1.86a6.22,6.22,0,0,1-.53,1.75l-.42.85a5.73,5.73,0,0,1-1.28,1.73h0a5.81,5.81,0,0,1-2.36,1.32h-.2a5.56,5.56,0,0,1-1.57.22H6.57A5.83,5.83,0,0,1,5,215.42H4.87A5.88,5.88,0,0,1,2.42,214h0a5.88,5.88,0,0,1-1.2-1.64l-.41-.84a5.94,5.94,0,0,1-.54-1.89L0,207.76q0-.33,0-.66V8L.26,6A5.56,5.56,0,0,1,.84,4l.41-.82A5.58,5.58,0,0,1,2.33,1.71h0A5.76,5.76,0,0,1,5,.19h.06A6.14,6.14,0,0,1,6.48,0Z"/><path class="cls-2" d="M84,162.06a1.48,1.48,0,0,1,1.2.49,7.46,7.46,0,0,1,1,1.74,22.65,22.65,0,0,0,5,7.88,12,12,0,0,0,15.18-.3q3.19-2.85,3.48-8.37a14,14,0,0,0-.17-3.15,10.61,10.61,0,0,0-3.71-6.56,11.21,11.21,0,0,0-7.4-2.49,37.93,37.93,0,0,0-5.35.52c-1.49.27-2.77.44-3.85.53a40.3,40.3,0,0,1-4.36.19H73.59c-2.19,0-3.4-.69-3.65-2.09a7.14,7.14,0,0,1,0-1.38l6.33-45.22c.27-2.23,1.36-3.35,3.29-3.35h46.13a5.06,5.06,0,0,1,2.65.53,2.22,2.22,0,0,1,1,1.57,7.58,7.58,0,0,1,.07,1.51L129,117.83a5.66,5.66,0,0,1-.76,3.15c-.43.52-1.34.79-2.74.79H94.81l-1.38,10a48.11,48.11,0,0,1,8.12-.46,28.27,28.27,0,0,1,14.68,3.8,30.58,30.58,0,0,1,10.3,9.85,34,34,0,0,1,5.05,12.6,28.27,28.27,0,0,1,.43,5.77,36.84,36.84,0,0,1-4.26,16.84,28.43,28.43,0,0,1-11,11.28,32.61,32.61,0,0,1-16.45,4A31.28,31.28,0,0,1,85.86,192,38,38,0,0,1,74,182.47a35.41,35.41,0,0,1-7-13,2.72,2.72,0,0,1-.05-1.78,2,2,0,0,1,1.6-1.37l14.44-4.07A4.32,4.32,0,0,1,84,162.06Z"/><path class="cls-2" d="M39.27,56.07a2.42,2.42,0,0,1-2.15-1.27L20.28,23.48h0a2.31,2.31,0,0,1,.07-2.33A2.42,2.42,0,0,1,22.43,20H56.09a2.41,2.41,0,0,1,2.07,1.15,2.31,2.31,0,0,1,.07,2.33L41.41,54.8a2.43,2.43,0,0,1-2.14,1.27Z"/></g></g></svg>