<svg xmlns="http://www.w3.org/2000/svg" viewBox="0 0 152.02 215.53"><defs><style>.cls-1{fill:#f9f9f9;fill-rule:evenodd;}.cls-2{fill:#212328;}</style></defs><title>card-club-9</title><g id="Layer_2" data-name="Layer 2"><g id="Layer_1-2" data-name="Layer 1"><path class="cls-1" d="M6.48,0h139a6,6,0,0,1,1.4.17H147a5.87,5.87,0,0,1,2.61,1.45h0a5.86,5.86,0,0,1,1.16,1.59l.42.83a6.23,6.23,0,0,1,.56,1.84l.26,2a4.69,4.69,0,0,1,0,.75V207a5.11,5.11,0,0,1,0,.78l-.25,1.86a6.22,6.22,0,0,1-.53,1.75l-.42.85a5.73,5.73,0,0,1-1.28,1.73h0a5.81,5.81,0,0,1-2.36,1.32h-.2a5.56,5.56,0,0,1-1.57.22H6.57A5.83,5.83,0,0,1,5,215.42H4.87A5.88,5.88,0,0,1,2.42,214h0a5.88,5.88,0,0,1-1.2-1.64l-.41-.84a5.94,5.94,0,0,1-.54-1.89L0,207.76q0-.33,0-.66V8L.26,6A5.56,5.56,0,0,1,.84,4l.41-.82A5.58,5.58,0,0,1,2.33,1.71h0A5.76,5.76,0,0,1,5,.19h.06A6.14,6.14,0,0,1,6.48,0Z"/><path class="cls-2" d="M102.5,194.77a4,4,0,0,1-2.46.76H81.34a3.29,3.29,0,0,1-1.78-.39,1.54,1.54,0,0,1-.7-1,2.83,2.83,0,0,1,.61-2.16l15.81-24.94a31.91,31.91,0,0,1-9.43-2.5,31.21,31.21,0,0,1-12.68-9.94,34.31,34.31,0,0,1-6.71-15.19,31.48,31.48,0,0,1-.5-6.89,32.59,32.59,0,0,1,5-16.41,31.87,31.87,0,0,1,12.43-11.35,37,37,0,0,1,17.33-4.07,34.7,34.7,0,0,1,15,3.48,35.89,35.89,0,0,1,12.48,9.74,30.33,30.33,0,0,1,6.54,14.21,31.57,31.57,0,0,1,.43,6.5,32.67,32.67,0,0,1-4.79,16l-25.95,41.94A8,8,0,0,1,102.5,194.77Zm9.1-64a10.61,10.61,0,0,0-3.41-6.33,9.81,9.81,0,0,0-6.72-2.4,10.2,10.2,0,0,0-7.85,3.32,12.76,12.76,0,0,0-3.27,8.43,16.62,16.62,0,0,0,.2,3,10.91,10.91,0,0,0,3.39,6.4,9.59,9.59,0,0,0,6.7,2.46,10.21,10.21,0,0,0,5.69-1.61,11.32,11.32,0,0,0,3.9-4.3,13.64,13.64,0,0,0,1.57-6A16.62,16.62,0,0,0,111.6,130.82Z"/><path class="cls-2" d="M42,40A10,10,0,1,1,52.24,30,10.12,10.12,0,0,1,42,40Z"/><path class="cls-2" d="M53.84,57.46a10,10,0,1,1,10.21-10A10.12,10.12,0,0,1,53.84,57.46Z"/><path class="cls-2" d="M30.21,57.46a10,10,0,1,1,10.22-10A10.12,10.12,0,0,1,30.21,57.46Z"/></g></g></svg>