<svg xmlns="http://www.w3.org/2000/svg" viewBox="0 0 152.02 215.53"><defs><style>.cls-1{fill:#f9f9f9;fill-rule:evenodd;}.cls-2{fill:#212328;}</style></defs><title>card-club-4</title><g id="Layer_2" data-name="Layer 2"><g id="Layer_1-2" data-name="Layer 1"><path class="cls-1" d="M6.48,0h139a6,6,0,0,1,1.4.17H147a5.87,5.87,0,0,1,2.61,1.45h0a5.86,5.86,0,0,1,1.16,1.59l.42.83a6.23,6.23,0,0,1,.56,1.84l.26,2a4.69,4.69,0,0,1,0,.75V207a5.11,5.11,0,0,1,0,.78l-.25,1.86a6.22,6.22,0,0,1-.53,1.75l-.42.85a5.73,5.73,0,0,1-1.28,1.73h0a5.81,5.81,0,0,1-2.36,1.32h-.2a5.56,5.56,0,0,1-1.57.22H6.57A5.83,5.83,0,0,1,5,215.42H4.87A5.88,5.88,0,0,1,2.42,214h0a5.88,5.88,0,0,1-1.2-1.64l-.41-.84a5.94,5.94,0,0,1-.54-1.89L0,207.76q0-.33,0-.66V8L.26,6A5.56,5.56,0,0,1,.84,4l.41-.82A5.58,5.58,0,0,1,2.33,1.71h0A5.76,5.76,0,0,1,5,.19h.06A6.14,6.14,0,0,1,6.48,0Z"/><path class="cls-2" d="M57.83,180.76a3.18,3.18,0,0,1-1.1-2,6.15,6.15,0,0,1,.15-2.52,9.17,9.17,0,0,1,1.21-2.79l42.84-69.3a4.91,4.91,0,0,1,1.77-1.87,5.35,5.35,0,0,1,2.17-.36L124,102a3.28,3.28,0,0,1,1.82.43,2,2,0,0,1,.8,1.41,10.34,10.34,0,0,1,.09,1.25l-2,54.93h7.81a3,3,0,0,1,1.79.49,2.06,2.06,0,0,1,.83,1.34v.79l-.54,14.77a7.3,7.3,0,0,1-.64,2.88c-.37.75-1.22,1.12-2.53,1.12h-7.55l-.37,12a3.19,3.19,0,0,1-.48,1.54,1.85,1.85,0,0,1-1.58.56H102.86c-1.35,0-2.1-.39-2.24-1.18a2.5,2.5,0,0,1,0-.59,4.63,4.63,0,0,1,0-.46l.41-11.81H60.22A3.63,3.63,0,0,1,57.83,180.76Zm45.11-42.13L90,160h12.14Z"/><path class="cls-2" d="M42,40A10,10,0,1,1,52.24,30,10.12,10.12,0,0,1,42,40Z"/><path class="cls-2" d="M53.84,57.46a10,10,0,1,1,10.21-10A10.12,10.12,0,0,1,53.84,57.46Z"/><path class="cls-2" d="M30.21,57.46a10,10,0,1,1,10.22-10A10.12,10.12,0,0,1,30.21,57.46Z"/></g></g></svg>