<svg xmlns="http://www.w3.org/2000/svg" viewBox="0 0 152.02 215.53"><defs><style>.cls-1{fill:#f9f9f9;fill-rule:evenodd;}.cls-2{fill:#d93025;}</style></defs><title>card-diamond-0</title><g id="Layer_2" data-name="Layer 2"><g id="Layer_1-2" data-name="Layer 1"><path class="cls-1" d="M6.48,0h139a6,6,0,0,1,1.4.17H147a5.87,5.87,0,0,1,2.61,1.45h0a5.86,5.86,0,0,1,1.16,1.59l.42.83a6.23,6.23,0,0,1,.56,1.84l.26,2a4.69,4.69,0,0,1,0,.75V207a5.11,5.11,0,0,1,0,.78l-.25,1.86a6.22,6.22,0,0,1-.53,1.75l-.42.85a5.73,5.73,0,0,1-1.28,1.73h0a5.81,5.81,0,0,1-2.36,1.32h-.2a5.56,5.56,0,0,1-1.57.22H6.57A5.83,5.83,0,0,1,5,215.42H4.87A5.88,5.88,0,0,1,2.42,214h0a5.88,5.88,0,0,1-1.2-1.64l-.41-.84a5.94,5.94,0,0,1-.54-1.89L0,207.76q0-.33,0-.66V8L.26,6A5.56,5.56,0,0,1,.84,4l.41-.82A5.58,5.58,0,0,1,2.33,1.71h0A5.76,5.76,0,0,1,5,.19h.06A6.14,6.14,0,0,1,6.48,0Z"/><path class="cls-2" d="M38.79,61.34a2.48,2.48,0,0,1-1.88-.87L21.3,42.29a2.46,2.46,0,0,1,0-3.24L36.91,20.87a2.48,2.48,0,0,1,3.77,0L56.29,39.05h0a2.46,2.46,0,0,1,0,3.24L40.68,60.47A2.49,2.49,0,0,1,38.79,61.34Z"/><path class="cls-2" d="M53.25,122.13a46.24,46.24,0,0,1,17.61-16.77,51.08,51.08,0,0,1,25-6.1,43.14,43.14,0,0,1,21,5.28,46.89,46.89,0,0,1,16.08,14.34A49.15,49.15,0,0,1,141.23,139a50.38,50.38,0,0,1,.77,10.3A47.43,47.43,0,0,1,135.09,173a45.74,45.74,0,0,1-17.62,16.53,52.06,52.06,0,0,1-25.13,6,43.9,43.9,0,0,1-21-5.15,46.58,46.58,0,0,1-16.1-14.08,48.24,48.24,0,0,1-9-30.32A48.56,48.56,0,0,1,53.25,122.13Zm16.9,30.94a24.11,24.11,0,0,0,4.21,10.07,22.35,22.35,0,0,0,8.11,6.93,23.38,23.38,0,0,0,10.74,2.49,24.29,24.29,0,0,0,12.54-3.35,25.7,25.7,0,0,0,9.16-9.08,26.38,26.38,0,0,0,3.73-12.7,27.59,27.59,0,0,0-.39-5.58A24.34,24.34,0,0,0,114,131.71a23,23,0,0,0-18.92-9.62,23.92,23.92,0,0,0-12.49,3.42,25.64,25.64,0,0,0-9.14,9.22,27,27,0,0,0-3.7,12.7A28.72,28.72,0,0,0,70.15,153.07Z"/></g></g></svg>