<svg xmlns="http://www.w3.org/2000/svg" viewBox="0 0 152.02 215.53"><defs><style>.cls-1{fill:#f9f9f9;fill-rule:evenodd;}.cls-2{fill:#d93025;}</style></defs><title>card-heart-7</title><g id="Layer_2" data-name="Layer 2"><g id="Layer_1-2" data-name="Layer 1"><path class="cls-1" d="M6.48,0h139a6,6,0,0,1,1.4.17H147a5.87,5.87,0,0,1,2.61,1.45h0a5.86,5.86,0,0,1,1.16,1.59l.42.83a6.23,6.23,0,0,1,.56,1.84l.26,2a4.69,4.69,0,0,1,0,.75V207a5.11,5.11,0,0,1,0,.78l-.25,1.86a6.22,6.22,0,0,1-.53,1.75l-.42.85a5.73,5.73,0,0,1-1.28,1.73h0a5.81,5.81,0,0,1-2.36,1.32h-.2a5.56,5.56,0,0,1-1.57.22H6.57A5.83,5.83,0,0,1,5,215.42H4.87A5.88,5.88,0,0,1,2.42,214h0a5.88,5.88,0,0,1-1.2-1.64l-.41-.84a5.94,5.94,0,0,1-.54-1.89L0,207.76q0-.33,0-.66V8L.26,6A5.56,5.56,0,0,1,.84,4l.41-.82A5.58,5.58,0,0,1,2.33,1.71h0A5.76,5.76,0,0,1,5,.19h.06A6.14,6.14,0,0,1,6.48,0Z"/><path class="cls-2" d="M130.8,102.57a2.83,2.83,0,0,1,1.15,1.87,6,6,0,0,1-1,4.2L83.06,193.36a3.92,3.92,0,0,1-3.56,2.17H56.6c-1.14,0-1.78-.39-1.92-1.18a2.14,2.14,0,0,1,.32-1.58L93.24,124.2H59.18a3.43,3.43,0,0,1-1.89-.5,2.13,2.13,0,0,1-1-1.54,4.73,4.73,0,0,1,0-.85l.56-16.54a3.14,3.14,0,0,1,.91-2.1,2.9,2.9,0,0,1,2.12-.79h68.25A4.42,4.42,0,0,1,130.8,102.57Z"/><path class="cls-2" d="M39.27,56.07a2.42,2.42,0,0,1-2.15-1.27L20.28,23.48h0a2.31,2.31,0,0,1,.07-2.33A2.42,2.42,0,0,1,22.43,20H56.09a2.41,2.41,0,0,1,2.07,1.15,2.31,2.31,0,0,1,.07,2.33L41.41,54.8a2.43,2.43,0,0,1-2.14,1.27Z"/></g></g></svg>