<svg xmlns="http://www.w3.org/2000/svg" viewBox="0 0 152.02 215.53"><defs><style>.cls-1{fill:#f9f9f9;fill-rule:evenodd;}.cls-2{fill:#212328;}</style></defs><title>card-club-5</title><g id="Layer_2" data-name="Layer 2"><g id="Layer_1-2" data-name="Layer 1"><path class="cls-1" d="M6.48,0h139a6,6,0,0,1,1.4.17H147a5.87,5.87,0,0,1,2.61,1.45h0a5.86,5.86,0,0,1,1.16,1.59l.42.83a6.23,6.23,0,0,1,.56,1.84l.26,2a4.69,4.69,0,0,1,0,.75V207a5.11,5.11,0,0,1,0,.78l-.25,1.86a6.22,6.22,0,0,1-.53,1.75l-.42.85a5.73,5.73,0,0,1-1.28,1.73h0a5.81,5.81,0,0,1-2.36,1.32h-.2a5.56,5.56,0,0,1-1.57.22H6.57A5.83,5.83,0,0,1,5,215.42H4.87A5.88,5.88,0,0,1,2.42,214h0a5.88,5.88,0,0,1-1.2-1.64l-.41-.84a5.94,5.94,0,0,1-.54-1.89L0,207.76q0-.33,0-.66V8L.26,6A5.56,5.56,0,0,1,.84,4l.41-.82A5.58,5.58,0,0,1,2.33,1.71h0A5.76,5.76,0,0,1,5,.19h.06A6.14,6.14,0,0,1,6.48,0Z"/><path class="cls-2" d="M87.17,162.06a1.46,1.46,0,0,1,1.2.49,7.79,7.79,0,0,1,1,1.74,22.36,22.36,0,0,0,5,7.88c1.85,1.7,4.42,2.56,7.7,2.56a10.91,10.91,0,0,0,7.47-2.86c2.13-1.9,3.3-4.69,3.48-8.37a14,14,0,0,0-.16-3.15,10.67,10.67,0,0,0-3.72-6.56,11.21,11.21,0,0,0-7.4-2.49,37.93,37.93,0,0,0-5.35.52c-1.49.27-2.77.44-3.84.53a40.63,40.63,0,0,1-4.37.19H76.76c-2.18,0-3.4-.69-3.65-2.09a7.14,7.14,0,0,1,0-1.38l6.34-45.22q.39-3.34,3.28-3.35h46.13a5,5,0,0,1,2.65.53,2.22,2.22,0,0,1,1,1.57,6.9,6.9,0,0,1,.07,1.51l-.47,13.72a5.76,5.76,0,0,1-.75,3.15,3.57,3.57,0,0,1-2.75.79H98l-1.38,10a48.19,48.19,0,0,1,8.12-.46,28.3,28.3,0,0,1,14.69,3.8,30.76,30.76,0,0,1,10.3,9.85,34,34,0,0,1,5,12.6,27.58,27.58,0,0,1,.43,5.77,37,37,0,0,1-4.25,16.84,28.52,28.52,0,0,1-11,11.28,32.59,32.59,0,0,1-16.45,4A31.28,31.28,0,0,1,89,192a38.06,38.06,0,0,1-11.91-9.52,35.41,35.41,0,0,1-7-13,2.72,2.72,0,0,1,0-1.78,2,2,0,0,1,1.6-1.37l14.44-4.07A4.32,4.32,0,0,1,87.17,162.06Z"/><path class="cls-2" d="M42,40A10,10,0,1,1,52.24,30,10.12,10.12,0,0,1,42,40Z"/><path class="cls-2" d="M53.84,57.46a10,10,0,1,1,10.21-10A10.12,10.12,0,0,1,53.84,57.46Z"/><path class="cls-2" d="M30.21,57.46a10,10,0,1,1,10.22-10A10.12,10.12,0,0,1,30.21,57.46Z"/></g></g></svg>